<svg 
  viewBox="0 0 32 32" 
  xmlns="http://www.w3.org/2000/svg"
  width="100%"
  height="100%"
>
  <!-- Outer Hexagonal Frame (Subtle transparency) -->
  <path 
    d="M16 2L29.8564 10V22L16 30L2.14359 22V10L16 2Z" 
    fill="#9CA3AF" 
    fill-opacity="0.05"
    stroke="#9CA3AF" 
    stroke-width="1.5"
    stroke-linejoin="round"
  />

  <!-- The "Vault" Core - Privacy Redaction Bars -->
  <rect x="8" y="11" width="16" height="3" rx="1.5" fill="#0000EE" />
  <rect x="8" y="15.5" width="12" height="3" rx="1.5" fill="#0099FF" fill-opacity="0.8" />
  <rect x="8" y="20" width="8" height="3" rx="1.5" fill="#0099FF" fill-opacity="0.6" />

  <!-- The Intelligence Spark (Right-aligned to show output) -->
  <circle cx="25" cy="19" r="4.5" fill="url(#sparkGradient)" />
  <path 
    d="M25 15C25 15 25.5 18 29 18C25.5 18 25 21 25 21C25 21 24.5 18 21 18C24.5 18 25 15 25 15Z" 
    fill="white" 
  />

  <defs>
    <linearGradient id="sparkGradient" x1="21.5" y1="15.5" x2="28.5" y2="22.5" gradientUnits="userSpaceOnUse">
      <stop stop-color="#0099FF" />
      <stop offset="1" stop-color="#0000EE" />
    </linearGradient>
  </defs>
</svg>
